<?xml version="1.0" encoding="UTF-8" standalone="no"?><!DOCTYPE svg PUBLIC "-//W3C//DTD SVG 1.1//EN" "http://www.w3.org/Graphics/SVG/1.1/DTD/svg11.dtd"><svg width="38px" height="38px" version="1.1" xmlns="http://www.w3.org/2000/svg" xmlns:xlink="http://www.w3.org/1999/xlink" xml:space="preserve" xmlns:serif="http://www.serif.com/" style="fill-rule:evenodd;clip-rule:evenodd;stroke-linejoin:round;stroke-miterlimit:2;"><g id="STORE-ICON" serif:id="STORE ICON"><path d="M37.636,7.892C37.635,3.836 34.297,0.498 30.241,0.497L8.055,0.497C3.998,0.499 0.661,3.836 0.659,7.892L0.659,30.078C0.662,34.134 3.999,37.471 8.055,37.474L30.241,37.474C34.297,37.471 37.634,34.134 37.636,30.078L37.636,7.892Z" style="fill:rgb(72,53,91);"/><g transform="matrix(0.270695,0,0,0.270695,6.9875,5.45275)"><path d="M78.486,3.5C77.978,2.921 77.322,2.674 76.574,2.674L76.566,2.703C73.786,2.703 69.687,6.104 66.815,8.87C60.768,5.92 53.338,4.474 44.313,4.474C35.288,4.474 27.858,5.92 21.818,8.863C18.946,6.097 14.846,2.695 12.073,2.695C11.318,2.695 10.669,2.942 10.161,3.521C5.842,8.474 5.433,20.336 5.588,27.166C3.641,32.501 2.653,38.738 2.653,45.865C2.653,60.838 6.943,71.931 15.389,78.867C21.084,83.531 28.514,86.219 37.983,87.024C37.587,87.221 37.185,87.417 36.779,87.615C36.049,87.971 35.304,88.334 34.547,88.724L31.118,90.404L29.17,91.356C28.63,91.638 28.085,91.91 27.534,92.186C26.151,92.879 24.728,93.592 23.229,94.51L22.714,94.778C22.566,94.884 22.432,95.061 22.403,95.265C22.333,95.646 22.594,96.006 22.975,96.063C23.571,96.151 24.165,96.248 24.759,96.346C26.071,96.561 27.381,96.777 28.711,96.888L30.158,97.051C30.638,97.1 31.111,97.142 31.605,97.171L34.505,97.333C34.956,97.347 35.408,97.347 35.859,97.347C39.296,97.347 42.746,97.114 46.161,96.578C50.028,95.992 53.831,94.913 57.479,93.41C61.12,91.907 64.592,89.945 67.739,87.567C73.977,82.719 78.881,76.2 81.795,68.939C82.861,66.307 83.665,63.576 84.229,60.803C85.387,56.351 85.972,51.369 85.972,45.851C85.972,38.745 84.991,32.522 83.051,27.187C83.213,20.364 82.811,8.46 78.486,3.5ZM66.307,5.666C70.512,1.856 73.885,0 76.574,0C78.147,0 79.502,0.6 80.511,1.75C85.111,7.021 85.909,18.156 85.747,26.757C87.68,32.282 88.661,38.703 88.661,45.851C88.661,51.517 88.054,56.753 86.847,61.403C86.226,64.395 85.365,67.266 84.286,69.927C81.167,77.696 76.016,84.519 69.362,89.684C66.074,92.168 62.426,94.249 58.51,95.865C54.594,97.474 50.579,98.596 46.592,99.196C43.212,99.732 39.606,100 35.874,100C35.408,100 34.935,100 34.469,99.986L34.363,99.986L31.463,99.824C30.927,99.795 30.405,99.753 29.869,99.69L28.457,99.534C27.099,99.421 25.785,99.207 24.509,99C24.432,98.987 24.356,98.975 24.28,98.963L24.276,98.962C23.713,98.871 23.15,98.779 22.608,98.695C21.712,98.568 20.893,98.074 20.364,97.34C19.842,96.62 19.63,95.71 19.771,94.835C19.912,93.953 20.413,93.141 21.161,92.598L21.317,92.485L21.486,92.394L21.923,92.168C23.483,91.215 24.922,90.495 26.319,89.797L26.319,89.797C26.411,89.751 26.503,89.705 26.595,89.659C27.051,89.432 27.503,89.206 27.949,88.971L28.006,88.943L29.248,88.336C23.13,86.883 18,84.427 13.71,80.913C4.615,73.434 -0,61.636 -0,45.844C-0,38.675 0.988,32.24 2.928,26.708C2.766,18.12 3.57,7.014 8.164,1.743C9.159,0.6 10.521,0 12.087,0C14.776,0 18.148,1.856 22.347,5.659C28.443,3.048 35.648,1.771 44.32,1.771C52.992,1.771 60.21,3.048 66.307,5.666ZM44.327,19.419C53.196,19.419 59.526,21.084 63.654,24.478C68.529,28.5 70.914,35.493 70.914,45.851C70.914,67.796 60.288,72.283 44.327,72.283C28.366,72.283 17.739,67.789 17.739,45.851C17.739,35.5 20.11,28.493 25,24.478C29.128,21.07 35.457,19.419 44.327,19.419ZM35.182,56.612C38.237,56.612 40.735,54.135 40.735,51.101L40.735,44.616C40.587,44.63 40.432,44.637 40.277,44.637C37.821,44.637 35.838,42.669 35.838,40.234C35.838,38.258 37.144,36.586 38.943,36.029C37.955,35.118 36.636,34.554 35.182,34.554C32.127,34.554 29.629,37.031 29.629,40.065L29.629,51.101C29.629,54.128 32.127,56.612 35.182,56.612ZM53.465,56.612C56.52,56.612 59.018,54.135 59.018,51.101L59.018,44.186C58.799,44.221 58.58,44.242 58.354,44.242C55.899,44.242 53.916,42.273 53.916,39.839C53.916,37.934 55.137,36.318 56.837,35.704C55.899,34.984 54.735,34.554 53.465,34.554C50.409,34.554 47.911,37.031 47.911,40.065L47.911,51.101C47.911,54.128 50.409,56.612 53.465,56.612Z" style="fill:white;"/></g></g></svg>