<?xml version="1.0" encoding="UTF-8" standalone="no"?>
<!DOCTYPE svg PUBLIC "-//W3C//DTD SVG 1.1//EN" "http://www.w3.org/Graphics/SVG/1.1/DTD/svg11.dtd">
<svg width="38px" height="38px" version="1.1" xmlns="http://www.w3.org/2000/svg" xmlns:xlink="http://www.w3.org/1999/xlink" xml:space="preserve" xmlns:serif="http://www.serif.com/" style="fill-rule:evenodd;clip-rule:evenodd;stroke-linejoin:round;stroke-miterlimit:2;">
    <g id="STORE-ICON" serif:id="STORE ICON">
        <path d="M37.636,7.892C37.635,3.836 34.297,0.498 30.241,0.497L8.055,0.497C3.998,0.499 0.661,3.836 0.659,7.892L0.659,30.078C0.662,34.134 3.999,37.471 8.055,37.474L30.241,37.474C34.297,37.471 37.634,34.134 37.636,30.078L37.636,7.892Z" style="fill:rgb(72,53,91);"/>
        <g transform="matrix(1.82468,0,0,1.82468,-15.7063,-14.4389)">
            <path d="M15.823,22.343L15.032,23.714L14.97,23.807C14.815,24.019 14.568,24.145 14.305,24.145C13.854,24.145 13.482,23.773 13.482,23.322C13.482,23.17 13.524,23.021 13.604,22.891L14.194,21.875L14.344,21.834C14.937,21.696 15.428,21.866 15.823,22.343Z" style="fill:white;"/>
            <path d="M20.21,15.66L20.44,16.057L22.634,19.854L24.774,19.854L24.877,19.86C25.287,19.91 25.598,20.263 25.597,20.676L25.597,20.679C25.597,21.129 25.227,21.499 24.777,21.499L24.775,21.499L23.585,21.499L24.387,22.891L24.436,22.991C24.474,23.088 24.494,23.191 24.494,23.295C24.494,23.747 24.122,24.119 23.67,24.119C23.379,24.119 23.108,23.964 22.96,23.713L19.92,18.447C19.23,17.257 19.722,16.064 20.21,15.66Z" style="fill:white;"/>
            <path d="M20.488,12.616C20.879,12.841 21.015,13.349 20.79,13.74L17.262,19.85L19.815,19.85L19.936,19.857C20.686,19.946 21.086,20.855 20.746,21.495L13.266,21.495L13.163,21.489C12.756,21.438 12.444,21.093 12.444,20.672L12.444,20.67C12.444,20.22 12.814,19.85 13.264,19.85L13.266,19.85L15.363,19.85L18.048,15.197L17.21,13.74L17.161,13.64C17.123,13.543 17.103,13.44 17.103,13.336C17.103,12.884 17.475,12.512 17.927,12.512C18.218,12.512 18.489,12.667 18.637,12.918L18.996,13.551L19.363,12.918L19.425,12.826C19.676,12.502 20.133,12.412 20.488,12.616Z" style="fill:white;"/>
        </g>
    </g>
</svg>
