<?xml version="1.0" encoding="UTF-8" standalone="no"?><!DOCTYPE svg PUBLIC "-//W3C//DTD SVG 1.1//EN" "http://www.w3.org/Graphics/SVG/1.1/DTD/svg11.dtd"><svg width="38px" height="38px" version="1.1" xmlns="http://www.w3.org/2000/svg" xmlns:xlink="http://www.w3.org/1999/xlink" xml:space="preserve" xmlns:serif="http://www.serif.com/" style="fill-rule:evenodd;clip-rule:evenodd;stroke-linejoin:round;stroke-miterlimit:2;"><g id="STORE-ICON" serif:id="STORE ICON"><path d="M37.636,7.892C37.635,3.836 34.297,0.498 30.241,0.497L8.055,0.497C3.998,0.499 0.661,3.836 0.659,7.892L0.659,30.078C0.662,34.134 3.999,37.471 8.055,37.474L30.241,37.474C34.297,37.471 37.634,34.134 37.636,30.078L37.636,7.892Z" style="fill:rgb(72,53,91);"/><g transform="matrix(0.546814,0,0,0.546814,5.29975,5.32965)"><path d="M25,3C13.59,3 4.209,11.681 3.109,22.801L14.301,28.529C15.431,27.579 16.9,27 18.5,27L18.551,27C18.941,26.4 19.389,25.649 19.859,24.869C20.839,23.259 21.94,21.439 23.02,20.039C23.26,15.569 26.97,12 31.5,12C36.19,12 40,15.81 40,20.5C40,25.03 36.431,28.74 31.961,28.98C30.561,30.06 28.751,31.161 27.131,32.131C26.351,32.611 25.6,33.059 25,33.449L25,33.5C25,37.09 22.09,40 18.5,40C14.91,40 12,37.09 12,33.5C12,33.33 12.01,33.17 12.02,33L3.279,28.52C4.969,39 14.05,47 25,47C37.15,47 47,37.15 47,25C47,12.85 37.15,3 25,3ZM31.5,14C27.92,14 25,16.92 25,20.5C25,24.08 27.92,27 31.5,27C35.08,27 38,24.08 38,20.5C38,16.92 35.08,14 31.5,14ZM31.5,16C33.99,16 36,18.01 36,20.5C36,22.99 33.99,25 31.5,25C29.01,25 27,22.99 27,20.5C27,18.01 29.01,16 31.5,16ZM18.5,29C17.71,29 16.96,29.2 16.32,29.57L19.641,31.27C20.871,31.9 21.35,33.411 20.73,34.641C20.28,35.501 19.41,36 18.5,36C18.11,36 17.729,35.91 17.359,35.73L14.029,34.02C14.289,36.26 16.19,38 18.5,38C20.99,38 23,35.99 23,33.5C23,31.01 20.99,29 18.5,29Z" style="fill:white;fill-rule:nonzero;"/></g></g></svg>