<svg clip-rule="evenodd" fill-rule="evenodd" height="122" stroke-linejoin="round" stroke-miterlimit="1.414" viewBox="0 0 123 123" width="122" xmlns="http://www.w3.org/2000/svg"><path d="m122.674 30.88c0-16.869-13.695-30.564-30.564-30.564h-61.128c-16.869 0-30.564 13.695-30.564 30.564v61.128c0 16.869 13.695 30.564 30.564 30.564h61.128c16.869 0 30.564-13.695 30.564-30.564z" fill="#b0bec5"/><path d="m61.546 67.444a6 6 0 1 1 0-12 6 6 0 0 1 0 12m0-19c-7.18 0-13 5.82-13 13s5.82 13 13 13 13-5.82 13-13-5.82-13-13-13m0 32c-10.493 0-19-8.507-19-19s8.507-19 19-19 19 8.507 19 19-8.507 19-19 19m0-45c-14.359 0-26 11.641-26 26 0 14.36 11.641 26 26 26 14.36 0 26-11.64 26-26 0-14.359-11.64-26-26-26m0 58c-17.673 0-32-14.327-32-32s14.327-32 32-32 32 14.327 32 32-14.327 32-32 32" fill="#fff"/></svg>